HIERARCHY
ROOT Hips
{
	OFFSET 0.00000 0.00000 0.00000
	CHANNELS 6 Xposition Yposition Zposition Zrotation Yrotation Xrotation 
	JOINT LHipJoint
	{
		OFFSET 0 0 0
		CHANNELS 3 Zrotation Yrotation Xrotation
		JOINT LeftUpLeg
		{
			OFFSET 1.37590 -1.78394 0.89329
			CHANNELS 3 Zrotation Yrotation Xrotation
			JOINT LeftLeg
			{
				OFFSET 2.47928 -6.81178 0.00000
				CHANNELS 3 Zrotation Yrotation Xrotation
				JOINT LeftFoot
				{
					OFFSET 2.63345 -7.23535 0.00000
					CHANNELS 3 Zrotation Yrotation Xrotation
					JOINT LeftToeBase
					{
						OFFSET 0.23938 -0.65768 2.27012
						CHANNELS 3 Zrotation Yrotation Xrotation
						End Site
						{
							OFFSET 0.00000 -0.00000 1.18363
						}
					}
				}
			}
		}
	}
	JOINT RHipJoint
	{
		OFFSET 0 0 0
		CHANNELS 3 Zrotation Yrotation Xrotation
		JOINT RightUpLeg
		{
			OFFSET -1.33617 -1.78394 0.89329
			CHANNELS 3 Zrotation Yrotation Xrotation
			JOINT RightLeg
			{
				OFFSET -2.56922 -7.05888 0.00000
				CHANNELS 3 Zrotation Yrotation Xrotation
				JOINT RightFoot
				{
					OFFSET -2.56568 -7.04915 0.00000
					CHANNELS 3 Zrotation Yrotation Xrotation
					JOINT RightToeBase
					{
						OFFSET -0.27533 -0.75646 2.18105
						CHANNELS 3 Zrotation Yrotation Xrotation
						End Site
						{
							OFFSET -0.00000 -0.00000 1.15233
						}
					}
				}
			}
		}
	}
	JOINT LowerBack
	{
		OFFSET 0 0 0
		CHANNELS 3 Zrotation Yrotation Xrotation
		JOINT Spine
		{
			OFFSET 0.06190 2.15152 -0.00935
			CHANNELS 3 Zrotation Yrotation Xrotation
			JOINT Spine1
			{
				OFFSET 0.06334 2.15332 0.00872
				CHANNELS 3 Zrotation Yrotation Xrotation
				JOINT Neck
				{
					OFFSET 0 0 0
					CHANNELS 3 Zrotation Yrotation Xrotation
					JOINT Neck1
					{
						OFFSET -0.04202 1.66908 0.23524
						CHANNELS 3 Zrotation Yrotation Xrotation
						JOINT Head
						{
							OFFSET 0.07510 1.69357 -0.24440
							CHANNELS 3 Zrotation Yrotation Xrotation
							End Site
							{
								OFFSET 0.02556 1.71719 -0.11000
							}
						}
					}
				}
				JOINT LeftShoulder
				{
					OFFSET 0 0 0
					CHANNELS 3 Zrotation Yrotation Xrotation
					JOINT LeftArm
					{
						OFFSET 3.67168 1.26306 -0.41342
						CHANNELS 3 Zrotation Yrotation Xrotation
						JOINT LeftForeArm
						{
							OFFSET 4.68510 -0.00000 -0.00000
							CHANNELS 3 Zrotation Yrotation Xrotation
							JOINT LeftHand
							{
								OFFSET 3.39626 -0.00000 -0.00000
								CHANNELS 3 Zrotation Yrotation Xrotation
								JOINT LeftFingerBase
								{
									OFFSET 0 0 0
									CHANNELS 3 Zrotation Yrotation Xrotation
									JOINT LeftHandIndex1
									{
										OFFSET 0.48608 -0.00000 -0.00000
										CHANNELS 3 Zrotation Yrotation Xrotation
										End Site
										{
											OFFSET 0.39189 -0.00000 -0.00000
										}
									}
								}
								JOINT LThumb
								{
									OFFSET 0 0 0
									CHANNELS 3 Zrotation Yrotation Xrotation
									End Site
									{
										OFFSET 0.39787 -0.00000 0.39787
									}
								}
							}
						}
					}
				}
				JOINT RightShoulder
				{
					OFFSET 0 0 0
					CHANNELS 3 Zrotation Yrotation Xrotation
					JOINT RightArm
					{
						OFFSET -3.04136 1.42992 -0.76390
						CHANNELS 3 Zrotation Yrotation Xrotation
						JOINT RightForeArm
						{
							OFFSET -5.55576 -0.00000 -0.00000
							CHANNELS 3 Zrotation Yrotation Xrotation
							JOINT RightHand
							{
								OFFSET -3.32774 -0.00000 -0.00000
								CHANNELS 3 Zrotation Yrotation Xrotation
								JOINT RightFingerBase
								{
									OFFSET 0 0 0
									CHANNELS 3 Zrotation Yrotation Xrotation
									JOINT RightHandIndex1
									{
										OFFSET -0.50763 -0.00000 -0.00000
										CHANNELS 3 Zrotation Yrotation Xrotation
										End Site
										{
											OFFSET -0.40926 -0.00000 -0.00000
										}
									}
								}
								JOINT RThumb
								{
									OFFSET 0 0 0
									CHANNELS 3 Zrotation Yrotation Xrotation
									End Site
									{
										OFFSET -0.41551 -0.00000 0.41551
									}
								}
							}
						}
					}
				}
			}
		}
	}
}
MOTION
Frames: 6
Frame Time: .0083333
10.5080 17.7625 6.0174 40.2716 -87.7369 -34.0919 0.0000 0.0000 0.0000 -23.6984 -4.1346 -0.6836 0.4732 4.4117 12.2379 0.4122 -6.4154 -11.6068 0.0187 0.8828 2.4264 0.0000 0.0000 0.0000 12.6314 4.7410 -35.0317 -1.7194 -8.2555 23.4928 0.8987 -16.8968 -10.2411 -0.1446 -2.4507 6.7529 -1.3368 -1.0018 2.9907 2.5445 -1.4178 2.2123 3.3970 -0.7634 0.6913 -2.9553 2.4152 -16.6417 9.3837 2.7411 6.5899 3.6468 1.8525 4.5046 -0.0000 -0.0000 0.0000 -94.0936 -21.1920 47.0633 22.3276 -33.3453 -6.7650 -0.0000 -0.0000 18.9517 20.0281 19.1902 6.8327 -7.1250 0.0000 -0.0000 -8.1993 50.1286 -1.0427 -0.0000 -0.0000 0.0000 91.2858 -1.1188 -6.8415 -8.2482 13.9544 -1.0111 0.0000 0.0000 31.3800 -5.4207 -21.2698 1.9715 7.1250 -0.0000 -0.0000 22.8786 -49.8922 -2.8936
10.3805 17.7464 6.0074 41.6173 -87.5540 -35.0637 0.0000 0.0000 0.0000 -23.7932 -3.9859 -0.6373 0.4687 4.3911 12.1798 0.4242 -6.7555 -11.8168 0.0181 0.8687 2.3875 0.0000 0.0000 0.0000 12.2221 5.4186 -34.7324 -1.3394 -7.3278 20.6902 0.8923 -16.7955 -9.9634 -0.1182 -2.2165 6.1043 -1.4080 -1.0903 2.9453 2.6108 -1.5386 2.2277 3.5069 -0.8265 0.7449 -2.8350 2.5725 -16.6292 9.2366 2.9455 6.5206 3.5951 1.9448 4.4709 0.0000 -0.0000 0.0000 -94.0876 -21.0222 47.1935 23.5890 -34.7266 -7.4711 -0.0000 -0.0000 16.8792 21.0787 19.0440 7.1683 -7.1250 0.0000 -0.0000 -7.1323 50.1467 -0.9089 0.0000 -0.0000 0.0000 91.3863 -1.6523 -6.3062 -8.4508 14.2810 -1.0606 0.0000 0.0000 29.9910 -4.6982 -20.7853 1.6705 7.1250 -0.0000 -0.0000 23.3020 -49.3390 -2.6218
10.2516 17.7293 5.9963 42.5632 -87.3880 -35.6395 0.0000 0.0000 0.0000 -23.8554 -3.8364 -0.5902 0.4655 4.3761 12.1372 0.4362 -7.1037 -12.0295 0.0173 0.8483 2.3314 0.0000 0.0000 0.0000 11.7540 6.2763 -34.3368 -1.0240 -6.4372 18.0583 0.8926 -16.8204 -10.0900 -0.0894 -1.9280 5.3067 -1.4511 -1.1784 2.8913 2.6697 -1.6586 2.2481 3.5928 -0.8891 0.8079 -2.6933 2.7155 -16.6326 9.0964 3.1232 6.4771 3.5410 2.0257 4.4503 -0.0000 0.0000 0.0000 -94.0505 -20.8462 47.2606 24.8640 -36.0646 -8.2097 -0.0000 -0.0000 15.0299 21.9257 18.9033 7.4297 -7.1250 0.0000 -0.0000 -6.2646 50.1373 -0.7960 -0.0000 0.0000 0.0000 91.4847 -2.1030 -5.9334 -8.6179 14.5495 -1.1022 0.0000 0.0000 28.8219 -4.0928 -20.4343 1.4311 7.1250 -0.0000 -0.0000 23.6818 -48.9291 -2.4190
10.1216 17.7116 5.9841 43.1809 -87.2426 -35.9020 0.0000 0.0000 0.0000 -23.8846 -3.6853 -0.5349 0.4640 4.3694 12.1184 0.4484 -7.4526 -12.2460 0.0159 0.8152 2.2404 0.0000 0.0000 0.0000 11.2560 7.2599 -33.8888 -0.7754 -5.6223 15.6925 0.8993 -16.9765 -10.6288 -0.0614 -1.5985 4.3972 -1.4640 -1.2624 2.8175 2.7222 -1.7730 2.2901 3.6539 -0.9494 0.9030 -2.5328 2.8432 -16.6444 8.9545 3.2762 6.4318 3.4815 2.0949 4.4330 0.0000 0.0000 0.0000 -93.9943 -20.6988 47.2713 26.1303 -37.3370 -8.9665 -0.0000 -0.0000 13.4651 22.5486 18.8182 7.6283 -7.1250 0.0000 -0.0000 -5.6310 50.1495 -0.7168 0.0000 0.0000 0.0000 91.5772 -2.4368 -5.7516 -8.7364 14.7394 -1.1321 0.0000 0.0000 27.9257 -3.6098 -20.1829 1.2469 7.1250 -0.0000 -0.0000 23.9973 -48.6302 -2.2695
9.9909 17.6933 5.9712 43.6024 -87.1121 -35.9872 0.0000 0.0000 0.0000 -23.8950 -3.5477 -0.4727 0.4654 4.3760 12.1369 0.4612 -7.7915 -12.4690 0.0142 0.7698 2.1156 0.0000 0.0000 0.0000 10.7718 8.2608 -33.4777 -0.5935 -4.9321 13.7150 0.9080 -17.2301 -11.4924 -0.0373 -1.2469 3.4284 -1.4498 -1.3463 2.7472 2.7705 -1.8874 2.3482 3.6948 -1.0098 1.0120 -2.3616 2.9599 -16.6832 8.8020 3.4124 6.3960 3.4167 2.1561 4.4248 -0.0000 0.0000 0.0000 -93.9238 -20.5720 47.2201 27.3856 -38.5445 -9.7385 -0.0000 -0.0000 12.2269 22.9535 18.8041 7.7736 -7.1250 0.0000 -0.0000 -5.2297 50.2012 -0.6721 -0.0000 0.0000 0.0000 91.6548 -2.6636 -5.7300 -8.8069 14.8521 -1.1501 0.0000 0.0000 27.3029 -3.2477 -20.0089 1.1123 7.1250 -0.0000 -0.0000 24.2400 -48.4202 -2.1633
9.8594 17.6745 5.9578 44.0534 -87.0010 -36.1300 0.0000 0.0000 0.0000 -23.8962 -3.4174 -0.3956 0.4698 4.3962 12.1939 0.4748 -8.1054 -12.6968 0.0120 0.7060 1.9401 0.0000 0.0000 0.0000 10.3827 9.1227 -33.2009 -0.4744 -4.4175 12.2544 0.9104 -17.4971 -12.4972 -0.0202 -0.9172 2.5209 -1.4078 -1.4195 2.7017 2.8099 -1.9876 2.4121 3.7109 -1.0627 1.1108 -2.1956 3.0652 -16.7185 8.6483 3.5350 6.3509 3.3511 2.2101 4.4142 0.0000 -0.0000 0.0000 -93.8398 -20.4532 47.1451 28.6078 -39.6698 -10.5094 -0.0000 -0.0000 11.3201 23.1608 18.8767 7.8799 -7.1250 0.0000 -0.0000 -5.0444 50.3123 -0.6620 0.0000 -0.0000 0.0000 91.7203 -2.8156 -5.8401 -8.8394 14.9041 -1.1585 0.0000 0.0000 26.9202 -2.9870 -19.9018 1.0176 7.1250 -0.0000 -0.0000 24.4230 -48.2861 -2.0967
